#N canvas 592 274 254 420 10;
#N canvas 130 74 860 643 cycles 1;
#N canvas 0 22 450 278 (subpatch) 0;
#X array array1 34 float 3;
#A 0 30 32 34 35 37 39 41 42 44 46 47 49 51 53 54 56 58 59 61 63 65
66 68 70 71 73 75 77 78 80 82 83 85 87;
#X coords 0 100 34 0 200 140 1 0 0;
#X restore 531 31 graph;
#X obj 101 242 f;
#X obj 101 263 mod 16;
#X obj 154 252 + 1;
#X obj 667 549 until;
#X obj 667 570 f;
#X obj 721 572 + 1;
#X obj 734 614 sel 0;
#X obj 667 612 t b f f;
#N canvas 0 23 450 278 (subpatch) 0;
#X array seed 8 float 3;
#A 0 78 89 959 807 43 4 670 307;
#X coords 0 1000 8 0 200 140 1 0 0;
#X restore 1044 428 graph;
#X obj 667 663 random 1000;
#X obj 685 693 tabwrite seed;
#X obj 811 793 + 1;
#X obj 743 780 f;
#X obj 743 822 tabread seed;
#N canvas 0 22 450 278 (subpatch) 0;
#X array seeds 4 float 3;
#A 0 84 81 82 83;
#X coords 0 1015 4 0 200 140 1 0 0;
#X restore 1044 598 graph;
#X obj 759 1037 tabwrite seeds;
#X obj 779 889 until;
#X obj 779 910 f;
#X obj 779 931 mod 4;
#X obj 831 914 + 1;
#X obj 838 949 sel 0;
#X obj 760 998 f;
#X obj 779 952 t b f f;
#X obj 798 1002 + 1;
#X obj 743 843 t b;
#X obj 1001 914 f;
#X obj 1001 935 mod 4;
#X obj 1058 921 + 1;
#X obj 980 1012 tabread seeds;
#X obj 957 1035 pack;
#X obj 1226 1122 route 1 2 3 0;
#X obj 1110 1212 s seedS;
#X obj 1001 893 until;
#X obj 1067 964 sel 0;
#X obj 1001 956 t f f f;
#X obj 1326 1122 route 2 3 0 1;
#X obj 1426 1122 route 3 0 1 2;
#X obj 1526 1122 route 0 1 2 3;
#X obj 1110 1169 f;
#X obj 1180 894 f;
#X obj 1180 915 mod 4;
#X obj 1226 904 + 1;
#X obj 1155 1059 spigot;
#X obj 1189 1030 == 1;
#X obj 1235 1069 spigot;
#X obj 1269 1040 == 2;
#X obj 1070 1269 f;
#X obj 1070 1312 s seedA;
#X obj 1240 1259 f;
#X obj 1240 1302 s seedT;
#X obj 1360 1259 f;
#X obj 1360 1302 s seedB;
#X obj 1375 1069 spigot;
#X obj 1455 1079 spigot;
#X obj 1409 1040 == 3;
#X obj 1489 1050 == 0;
#X obj 980 725 sel 0;
#X obj 980 746 f;
#X obj 980 767 mod 4;
#X obj 1028 755 + 1;
#X obj 899 775 sel 0;
#X obj 186 1218 *~;
#X obj 202 1172 sig~;
#X obj 286 1074 random 4;
#X obj 286 1095 sel 0 1 2 3;
#X obj 253 1209 *~;
#X obj 292 1172 sig~;
#X obj 363 1209 *~;
#X obj 402 1172 sig~;
#X obj 497 1217 *~;
#X obj 512 1172 sig~;
#X obj 512 1192 lop~ 0.5;
#X obj 402 1193 lop~ 0.5;
#X obj 292 1193 lop~ 0.5;
#X obj 202 1193 lop~ 0.5;
#X obj 345 596 r seedA;
#X obj 462 587 r seedT;
#X obj 541 629 r seedB;
#X obj 195 625 r seedS;
#X msg 202 1151 0.2;
#X msg 292 1151 0.2;
#X msg 402 1151 0.2;
#X msg 241 1150 0.5;
#X obj 350 1735 dac~;
#X obj 500 765 osc~;
#X obj 533 434 random 12;
#X obj 533 455 - 6;
#X obj 494 864 *~ 0.2;
#X msg 625 819 -1;
#X msg 745 756 0;
#X msg 669 820 1;
#X obj 634 376 f;
#X obj 634 397 + 1;
#X obj 665 390 mod 8;
#X obj 664 418 sel 0 4;
#X obj 667 591 mod 16;
#X msg 240 133 tempo \$1 permin;
#X msg 775 130 0 30 32 33 35 37 38 40 42 44 45 47 49 50 52 54 56 57
59 61 62 64 66 68 69 71 73 74 76 78 80 81 83 85 86;
#X msg 770 24 0 30 32 34 35 37 39 41 42 44 46 47 49 51 53 54 56 58
59 61 63 65 66 68 70 71 73 75 77 78 80 82 83 85 87;
#X obj 770 56 s array1;
#X obj 775 167 s array1;
#X obj 101 221 metro 1;
#X obj 18 148 r stop;
#X obj 81 116 r play;
#X msg 81 137 1;
#X msg 18 169 0;
#X obj 80 194 change;
#X obj 341 170 bng 15 250 50 0 stop-s stop-r stopgcvk 17 7 0 10 -262144
-1 -1;
#X obj 352 260 s stop;
#X obj 827 738 r stop;
#X obj 704 493 r stop;
#X obj 1060 766 r stop;
#X msg 1060 807 0;
#X obj 18 190 t f f;
#X obj 19 215 pipe 5;
#X obj 611 516 del 5;
#X obj 1303 880 r stop;
#X msg 1303 901 0;
#X obj 378 193 loadbang;
#X obj 743 801 mod 9;
#X obj 625 798 sel 7 1 0;
#X obj 899 205 r play;
#X obj 899 347 f;
#X obj 930 347 + 1;
#X obj 899 368 ==;
#X obj 899 389 sel 1;
#X obj 899 410 s stop;
#X msg 623 336 -1;
#X obj 211 51 r tempo;
#X obj 899 301 spigot;
#X obj 899 226 t b b;
#X msg 925 274 0;
#X msg 985 248 1;
#X obj 986 218 r stop;
#X msg 899 326 -1;
#X obj 297 11 loadbang;
#X obj 278 269 s play;
#X obj 279 196 bng 15 250 50 0 play-s play-r playhgc 17 7 0 10 -262144
-1 -1;
#X obj 480 259 s cycles;
#X obj 1045 292 r cycles;
#X obj 192 748 *~ 0.1;
#X msg 331 1150 0.6;
#X msg 441 1150 0.6;
#X msg 512 1151 0.3;
#X msg 551 1150 0.7;
#X obj 306 108 * 2;
#X msg 278 52 82;
#X obj 553 266 s tempo;
#X obj 57 1350 *~;
#X obj 76 1302 sig~;
#X obj 76 1249 r stop;
#X obj 134 1250 r play;
#X msg 134 1278 1;
#X msg 79 1271 0;
#X obj 76 1325 lop~ 50;
#X obj 251 1306 *~;
#X obj 359 1300 *~;
#X obj 498 1293 *~;
#X obj 299 1607 *~ 0.65;
#X obj 388 1654 *~ 0.65;
#X obj 827 484 r play;
#X msg 826 522 stop;
#X obj 759 520 del 10;
#X obj 681 1259 r tempo;
#X obj 782 1238 loadbang;
#X msg 777 1268 82;
#X obj 238 1718 hip~ 5;
#X obj 395 1714 hip~ 5;
#N canvas 0 23 450 300 voice21 0;
#N canvas 0 22 450 278 (subpatch) 0;
#X array 21-voice 16 float 3;
#A 0 10 11 1 6 6 9 5 11 3 8 2 1 12 9 8 2;
#X coords 0 13 16 0 200 140 1 0 0;
#X restore 534 349 graph;
#X obj 324 579 until;
#X obj 324 600 f;
#X obj 378 602 + 1;
#X obj 391 644 sel 0;
#X obj 324 642 t b f f;
#X obj 324 621 mod 16;
#X msg 441 662 seed \$1;
#X obj 324 693 random 13;
#X obj 459 595 t b f;
#X obj 437 620 f;
#X obj 324 554 t b b;
#X obj 28 540 mtof;
#X obj 28 386 inlet;
#X obj 329 514 inlet seed;
#X obj 20 612 outlet;
#X obj 31 513 + 0;
#X obj 433 464 inlet;
#X obj 19 470 tabread array1;
#X obj 27 439 + 21;
#X obj 324 721 tabwrite 21-voice;
#X obj 21 406 tabread 21-voice;
#X connect 1 0 2 0;
#X connect 2 0 6 0;
#X connect 3 0 2 1;
#X connect 4 0 1 1;
#X connect 5 0 8 0;
#X connect 5 1 20 1;
#X connect 5 2 4 0;
#X connect 6 0 3 0;
#X connect 6 0 5 0;
#X connect 7 0 8 0;
#X connect 8 0 20 0;
#X connect 9 0 11 0;
#X connect 9 1 10 1;
#X connect 10 0 7 0;
#X connect 11 0 1 0;
#X connect 11 1 10 0;
#X connect 12 0 15 0;
#X connect 13 0 21 0;
#X connect 14 0 9 0;
#X connect 16 0 12 0;
#X connect 17 0 16 1;
#X connect 18 0 16 0;
#X connect 19 0 18 0;
#X connect 21 0 19 0;
#X restore 54 600 pd voice21;
#N canvas 0 23 450 300 voice13 0;
#N canvas 0 22 450 278 (subpatch) 0;
#X array 13-voice 16 float 3;
#A 0 2 12 3 8 4 11 11 2 7 4 9 6 8 8 8 3;
#X coords 0 13 16 0 200 140 1 0 0;
#X restore 534 349 graph;
#X obj 324 579 until;
#X obj 324 600 f;
#X obj 378 602 + 1;
#X obj 391 644 sel 0;
#X obj 324 642 t b f f;
#X obj 324 621 mod 16;
#X msg 441 661 seed \$1;
#X obj 324 693 random 13;
#X obj 459 595 t b f;
#X obj 437 620 f;
#X obj 324 554 t b b;
#X obj 28 540 mtof;
#X obj 28 386 inlet;
#X obj 329 514 inlet seed;
#X obj 20 612 outlet;
#X obj 31 513 + 0;
#X obj 433 464 inlet;
#X obj 19 470 tabread array1;
#X obj 26 439 + 13;
#X obj 21 407 tabread 13-voice;
#X obj 324 721 tabwrite 13-voice;
#X connect 1 0 2 0;
#X connect 2 0 6 0;
#X connect 3 0 2 1;
#X connect 4 0 1 1;
#X connect 5 0 8 0;
#X connect 5 1 21 1;
#X connect 5 2 4 0;
#X connect 6 0 3 0;
#X connect 6 0 5 0;
#X connect 7 0 8 0;
#X connect 8 0 21 0;
#X connect 9 0 11 0;
#X connect 9 1 10 1;
#X connect 10 0 7 0;
#X connect 11 0 1 0;
#X connect 11 1 10 0;
#X connect 12 0 15 0;
#X connect 13 0 20 0;
#X connect 14 0 9 0;
#X connect 16 0 12 0;
#X connect 17 0 16 1;
#X connect 18 0 16 0;
#X connect 19 0 18 0;
#X connect 20 0 19 0;
#X restore 272 701 pd voice13;
#N canvas 0 23 450 300 voice7 0;
#N canvas 0 22 450 278 (subpatch) 0;
#X array 7-voice 16 float 3;
#A 0 7 1 6 10 3 12 4 6 10 12 3 10 5 6 9 4;
#X coords 0 13 16 0 200 140 1 0 0;
#X restore 534 349 graph;
#X obj 324 579 until;
#X obj 324 600 f;
#X obj 378 602 + 1;
#X obj 391 644 sel 0;
#X obj 324 642 t b f f;
#X obj 324 621 mod 16;
#X msg 441 661 seed \$1;
#X obj 324 693 random 13;
#X obj 459 595 t b f;
#X obj 437 620 f;
#X obj 324 554 t b b;
#X obj 28 540 mtof;
#X obj 28 386 inlet;
#X obj 329 514 inlet seed;
#X obj 20 612 outlet;
#X obj 31 513 + 0;
#X obj 433 464 inlet;
#X obj 19 470 tabread array1;
#X obj 26 439 + 7;
#X obj 21 407 tabread 7-voice;
#X obj 324 721 tabwrite 7-voice;
#X connect 1 0 2 0;
#X connect 2 0 6 0;
#X connect 3 0 2 1;
#X connect 4 0 1 1;
#X connect 5 0 8 0;
#X connect 5 1 21 1;
#X connect 5 2 4 0;
#X connect 6 0 3 0;
#X connect 6 0 5 0;
#X connect 7 0 8 0;
#X connect 8 0 21 0;
#X connect 9 0 11 0;
#X connect 9 1 10 1;
#X connect 10 0 7 0;
#X connect 11 0 1 0;
#X connect 11 1 10 0;
#X connect 12 0 15 0;
#X connect 13 0 20 0;
#X connect 14 0 9 0;
#X connect 16 0 12 0;
#X connect 17 0 16 1;
#X connect 18 0 16 0;
#X connect 19 0 18 0;
#X connect 20 0 19 0;
#X restore 419 674 pd voice7;
#N canvas 0 23 450 300 voice0 0;
#N canvas 0 22 450 278 (subpatch) 0;
#X array 0-voice 16 float 3;
#A 0 6 9 12 4 8 7 12 7 0 0 8 10 2 10 7 1;
#X coords 0 13 16 0 200 140 1 0 0;
#X restore 534 349 graph;
#X obj 324 579 until;
#X obj 324 600 f;
#X obj 378 602 + 1;
#X obj 391 644 sel 0;
#X obj 324 642 t b f f;
#X obj 324 621 mod 16;
#X msg 441 661 seed \$1;
#X obj 324 693 random 13;
#X obj 459 595 t b f;
#X obj 437 620 f;
#X obj 324 554 t b b;
#X obj 28 540 mtof;
#X obj 28 386 inlet;
#X obj 329 514 inlet seed;
#X obj 20 612 outlet;
#X obj 31 513 + 0;
#X obj 433 464 inlet;
#X obj 19 470 tabread array1;
#X obj 26 439 + 7;
#X obj 20 407 tabread 0-voice;
#X obj 324 721 tabwrite 0-voice;
#X connect 1 0 2 0;
#X connect 2 0 6 0;
#X connect 3 0 2 1;
#X connect 4 0 1 1;
#X connect 5 0 8 0;
#X connect 5 1 21 1;
#X connect 5 2 4 0;
#X connect 6 0 3 0;
#X connect 6 0 5 0;
#X connect 7 0 8 0;
#X connect 8 0 21 0;
#X connect 9 0 11 0;
#X connect 9 1 10 1;
#X connect 10 0 7 0;
#X connect 11 0 1 0;
#X connect 11 1 10 0;
#X connect 12 0 15 0;
#X connect 13 0 20 0;
#X connect 14 0 9 0;
#X connect 16 0 12 0;
#X connect 17 0 16 1;
#X connect 18 0 16 0;
#X connect 19 0 18 0;
#X connect 20 0 19 0;
#X restore 500 700 pd voice0;
#N canvas 0 23 450 300 fm 0;
#X obj 169 188 +~;
#X obj 168 232 osc~;
#X obj 168 253 outlet~;
#X obj 259 108 osc~ 200;
#X obj 259 168 *~ 50;
#X obj 123 47 inlet;
#X connect 0 0 1 0;
#X connect 1 0 2 0;
#X connect 3 0 4 0;
#X connect 4 0 0 1;
#X connect 5 0 0 0;
#X restore 150 725 pd fm;
#N canvas 0 23 450 300 karplus 0;
#X obj 84 68 noise~;
#X obj 90 93 *~;
#X obj 140 86 vline~;
#X obj 123 258 lop~;
#X msg 281 123 1000;
#X obj 307 154 /;
#X obj 320 99 t b f;
#X obj 219 210 + 500;
#X obj 219 189 random 500;
#X msg 206 36 1 \, 0 5 10;
#X obj 108 234 lop~ 5000;
#X obj 206 57 t a b;
#X obj 88 383 outlet~;
#X obj 314 24 change;
#X obj 314 45 t b f;
#X obj 314 -3 inlet;
#X obj 89 289 *~ 0.1;
#X obj 90 130 delwrite~ 13-karp 100;
#X obj 95 165 delread~ 13-karp 20;
#X connect 0 0 1 0;
#X connect 1 0 17 0;
#X connect 2 0 1 1;
#X connect 3 0 16 0;
#X connect 4 0 5 0;
#X connect 5 0 18 0;
#X connect 6 0 4 0;
#X connect 6 1 5 1;
#X connect 7 0 3 1;
#X connect 8 0 7 0;
#X connect 9 0 11 0;
#X connect 10 0 3 0;
#X connect 10 0 17 0;
#X connect 11 0 2 0;
#X connect 11 1 8 0;
#X connect 13 0 14 0;
#X connect 14 0 9 0;
#X connect 14 1 6 0;
#X connect 15 0 13 0;
#X connect 16 0 12 0;
#X connect 18 0 10 0;
#X restore 285 777 pd karplus;
#N canvas 0 23 450 300 karplus 0;
#X obj 84 68 noise~;
#X obj 90 93 *~;
#X obj 140 86 vline~;
#X obj 123 258 lop~;
#X msg 281 123 1000;
#X obj 307 154 /;
#X obj 320 99 t b f;
#X obj 219 210 + 500;
#X obj 219 189 random 500;
#X msg 206 36 1 \, 0 5 10;
#X obj 108 234 lop~ 5000;
#X obj 206 57 t a b;
#X obj 88 383 outlet~;
#X obj 314 24 change;
#X obj 314 45 t b f;
#X obj 314 -3 inlet;
#X obj 89 289 *~ 0.1;
#X obj 90 130 delwrite~ 7-karp 100;
#X obj 95 165 delread~ 7-karp 20;
#X connect 0 0 1 0;
#X connect 1 0 17 0;
#X connect 2 0 1 1;
#X connect 3 0 16 0;
#X connect 4 0 5 0;
#X connect 5 0 18 0;
#X connect 6 0 4 0;
#X connect 6 1 5 1;
#X connect 7 0 3 1;
#X connect 8 0 7 0;
#X connect 9 0 11 0;
#X connect 10 0 3 0;
#X connect 10 0 17 0;
#X connect 11 0 2 0;
#X connect 11 1 8 0;
#X connect 13 0 14 0;
#X connect 14 0 9 0;
#X connect 14 1 6 0;
#X connect 15 0 13 0;
#X connect 16 0 12 0;
#X connect 18 0 10 0;
#X restore 401 807 pd karplus;
#N canvas 0 23 450 300 pan 0;
#X obj 288 282 line;
#X obj 337 234 + 1000;
#X obj 300 257 pack;
#X obj 337 213 random 20000;
#X obj 234 567 *~;
#X obj 261 534 sig~;
#X obj 413 537 sig~;
#X obj 394 558 *~;
#X obj 390 163 del;
#X obj 314 158 t b b b;
#X obj 316 118 loadbang;
#X obj 327 490 inlet~;
#X obj 397 587 outlet~;
#X obj 234 588 outlet~;
#X obj 260 395 *;
#X obj 261 371 t f f;
#X obj 229 220 / 10;
#X obj 358 364 -;
#X msg 311 345 10;
#X obj 271 311 t f b f;
#X obj 388 409 *;
#X obj 389 385 t f f;
#X obj 260 506 / 100;
#X obj 409 507 / 100;
#X obj 266 475 -;
#X msg 266 448 100;
#X obj 265 421 t b f;
#X obj 421 489 -;
#X msg 400 460 100;
#X obj 404 433 t b f;
#X obj 229 199 random 101;
#X connect 0 0 19 0;
#X connect 1 0 2 1;
#X connect 1 0 8 1;
#X connect 2 0 0 0;
#X connect 3 0 1 0;
#X connect 4 0 13 0;
#X connect 5 0 4 1;
#X connect 6 0 7 1;
#X connect 7 0 12 0;
#X connect 8 0 9 0;
#X connect 9 0 8 0;
#X connect 9 1 30 0;
#X connect 9 2 3 0;
#X connect 10 0 9 0;
#X connect 11 0 4 0;
#X connect 11 0 7 0;
#X connect 14 0 26 0;
#X connect 15 0 14 0;
#X connect 15 1 14 1;
#X connect 16 0 2 0;
#X connect 17 0 21 0;
#X connect 18 0 17 0;
#X connect 19 0 15 0;
#X connect 19 1 18 0;
#X connect 19 2 17 1;
#X connect 20 0 29 0;
#X connect 21 0 20 0;
#X connect 21 1 20 1;
#X connect 22 0 5 0;
#X connect 23 0 6 0;
#X connect 24 0 22 0;
#X connect 25 0 24 0;
#X connect 26 0 25 0;
#X connect 26 1 24 1;
#X connect 27 0 23 0;
#X connect 28 0 27 0;
#X connect 29 0 28 0;
#X connect 29 1 27 1;
#X connect 30 0 16 0;
#X restore 94 1450 pd pan;
#N canvas 0 23 450 300 pan 0;
#X obj 288 282 line;
#X obj 337 234 + 1000;
#X obj 300 257 pack;
#X obj 337 213 random 20000;
#X obj 234 567 *~;
#X obj 261 534 sig~;
#X obj 413 537 sig~;
#X obj 394 558 *~;
#X obj 390 163 del;
#X obj 314 158 t b b b;
#X obj 316 118 loadbang;
#X obj 327 490 inlet~;
#X obj 397 587 outlet~;
#X obj 234 588 outlet~;
#X obj 260 395 *;
#X obj 261 371 t f f;
#X obj 229 220 / 10;
#X obj 358 364 -;
#X msg 311 345 10;
#X obj 271 311 t f b f;
#X obj 388 409 *;
#X obj 389 385 t f f;
#X obj 260 506 / 100;
#X obj 409 507 / 100;
#X obj 266 475 -;
#X msg 266 448 100;
#X obj 265 421 t b f;
#X obj 421 489 -;
#X msg 400 460 100;
#X obj 404 433 t b f;
#X obj 229 199 random 101;
#X connect 0 0 19 0;
#X connect 1 0 2 1;
#X connect 1 0 8 1;
#X connect 2 0 0 0;
#X connect 3 0 1 0;
#X connect 4 0 13 0;
#X connect 5 0 4 1;
#X connect 6 0 7 1;
#X connect 7 0 12 0;
#X connect 8 0 9 0;
#X connect 9 0 8 0;
#X connect 9 1 30 0;
#X connect 9 2 3 0;
#X connect 10 0 9 0;
#X connect 11 0 4 0;
#X connect 11 0 7 0;
#X connect 14 0 26 0;
#X connect 15 0 14 0;
#X connect 15 1 14 1;
#X connect 16 0 2 0;
#X connect 17 0 21 0;
#X connect 18 0 17 0;
#X connect 19 0 15 0;
#X connect 19 1 18 0;
#X connect 19 2 17 1;
#X connect 20 0 29 0;
#X connect 21 0 20 0;
#X connect 21 1 20 1;
#X connect 22 0 5 0;
#X connect 23 0 6 0;
#X connect 24 0 22 0;
#X connect 25 0 24 0;
#X connect 26 0 25 0;
#X connect 26 1 24 1;
#X connect 27 0 23 0;
#X connect 28 0 27 0;
#X connect 29 0 28 0;
#X connect 29 1 27 1;
#X connect 30 0 16 0;
#X restore 147 1453 pd pan;
#N canvas 0 23 450 300 pan 0;
#X obj 288 282 line;
#X obj 337 234 + 1000;
#X obj 300 257 pack;
#X obj 337 213 random 20000;
#X obj 234 567 *~;
#X obj 261 534 sig~;
#X obj 413 537 sig~;
#X obj 394 558 *~;
#X obj 390 163 del;
#X obj 314 158 t b b b;
#X obj 316 118 loadbang;
#X obj 327 490 inlet~;
#X obj 397 587 outlet~;
#X obj 234 588 outlet~;
#X obj 260 395 *;
#X obj 261 371 t f f;
#X obj 229 220 / 10;
#X obj 358 364 -;
#X msg 311 345 10;
#X obj 271 311 t f b f;
#X obj 388 409 *;
#X obj 389 385 t f f;
#X obj 260 506 / 100;
#X obj 409 507 / 100;
#X obj 266 475 -;
#X msg 266 448 100;
#X obj 265 421 t b f;
#X obj 421 489 -;
#X msg 400 460 100;
#X obj 404 433 t b f;
#X obj 229 199 random 101;
#X connect 0 0 19 0;
#X connect 1 0 2 1;
#X connect 1 0 8 1;
#X connect 2 0 0 0;
#X connect 3 0 1 0;
#X connect 4 0 13 0;
#X connect 5 0 4 1;
#X connect 6 0 7 1;
#X connect 7 0 12 0;
#X connect 8 0 9 0;
#X connect 9 0 8 0;
#X connect 9 1 30 0;
#X connect 9 2 3 0;
#X connect 10 0 9 0;
#X connect 11 0 4 0;
#X connect 11 0 7 0;
#X connect 14 0 26 0;
#X connect 15 0 14 0;
#X connect 15 1 14 1;
#X connect 16 0 2 0;
#X connect 17 0 21 0;
#X connect 18 0 17 0;
#X connect 19 0 15 0;
#X connect 19 1 18 0;
#X connect 19 2 17 1;
#X connect 20 0 29 0;
#X connect 21 0 20 0;
#X connect 21 1 20 1;
#X connect 22 0 5 0;
#X connect 23 0 6 0;
#X connect 24 0 22 0;
#X connect 25 0 24 0;
#X connect 26 0 25 0;
#X connect 26 1 24 1;
#X connect 27 0 23 0;
#X connect 28 0 27 0;
#X connect 29 0 28 0;
#X connect 29 1 27 1;
#X connect 30 0 16 0;
#X restore 200 1455 pd pan;
#N canvas 0 23 450 300 pan 0;
#X obj 288 282 line;
#X obj 337 234 + 1000;
#X obj 300 257 pack;
#X obj 337 213 random 20000;
#X obj 234 567 *~;
#X obj 261 534 sig~;
#X obj 413 537 sig~;
#X obj 394 558 *~;
#X obj 390 163 del;
#X obj 314 158 t b b b;
#X obj 316 118 loadbang;
#X obj 327 490 inlet~;
#X obj 397 587 outlet~;
#X obj 234 588 outlet~;
#X obj 260 395 *;
#X obj 261 371 t f f;
#X obj 229 220 / 10;
#X obj 358 364 -;
#X msg 311 345 10;
#X obj 271 311 t f b f;
#X obj 388 409 *;
#X obj 389 385 t f f;
#X obj 260 506 / 100;
#X obj 409 507 / 100;
#X obj 266 475 -;
#X msg 266 448 100;
#X obj 265 421 t b f;
#X obj 421 489 -;
#X msg 400 460 100;
#X obj 404 433 t b f;
#X obj 229 199 random 101;
#X connect 0 0 19 0;
#X connect 1 0 2 1;
#X connect 1 0 8 1;
#X connect 2 0 0 0;
#X connect 3 0 1 0;
#X connect 4 0 13 0;
#X connect 5 0 4 1;
#X connect 6 0 7 1;
#X connect 7 0 12 0;
#X connect 8 0 9 0;
#X connect 9 0 8 0;
#X connect 9 1 30 0;
#X connect 9 2 3 0;
#X connect 10 0 9 0;
#X connect 11 0 4 0;
#X connect 11 0 7 0;
#X connect 14 0 26 0;
#X connect 15 0 14 0;
#X connect 15 1 14 1;
#X connect 16 0 2 0;
#X connect 17 0 21 0;
#X connect 18 0 17 0;
#X connect 19 0 15 0;
#X connect 19 1 18 0;
#X connect 19 2 17 1;
#X connect 20 0 29 0;
#X connect 21 0 20 0;
#X connect 21 1 20 1;
#X connect 22 0 5 0;
#X connect 23 0 6 0;
#X connect 24 0 22 0;
#X connect 25 0 24 0;
#X connect 26 0 25 0;
#X connect 26 1 24 1;
#X connect 27 0 23 0;
#X connect 28 0 27 0;
#X connect 29 0 28 0;
#X connect 29 1 27 1;
#X connect 30 0 16 0;
#X restore 261 1457 pd pan;
#N canvas 0 23 450 300 pan 0;
#X obj 288 282 line;
#X obj 337 234 + 1000;
#X obj 300 257 pack;
#X obj 337 213 random 20000;
#X obj 234 567 *~;
#X obj 261 534 sig~;
#X obj 413 537 sig~;
#X obj 394 558 *~;
#X obj 390 163 del;
#X obj 314 158 t b b b;
#X obj 316 118 loadbang;
#X obj 327 490 inlet~;
#X obj 397 587 outlet~;
#X obj 234 588 outlet~;
#X obj 260 395 *;
#X obj 261 371 t f f;
#X obj 229 220 / 10;
#X obj 358 364 -;
#X msg 311 345 10;
#X obj 271 311 t f b f;
#X obj 388 409 *;
#X obj 389 385 t f f;
#X obj 260 506 / 100;
#X obj 409 507 / 100;
#X obj 266 475 -;
#X msg 266 448 100;
#X obj 265 421 t b f;
#X obj 421 489 -;
#X msg 400 460 100;
#X obj 404 433 t b f;
#X obj 229 199 random 101;
#X connect 0 0 19 0;
#X connect 1 0 2 1;
#X connect 1 0 8 1;
#X connect 2 0 0 0;
#X connect 3 0 1 0;
#X connect 4 0 13 0;
#X connect 5 0 4 1;
#X connect 6 0 7 1;
#X connect 7 0 12 0;
#X connect 8 0 9 0;
#X connect 9 0 8 0;
#X connect 9 1 30 0;
#X connect 9 2 3 0;
#X connect 10 0 9 0;
#X connect 11 0 4 0;
#X connect 11 0 7 0;
#X connect 14 0 26 0;
#X connect 15 0 14 0;
#X connect 15 1 14 1;
#X connect 16 0 2 0;
#X connect 17 0 21 0;
#X connect 18 0 17 0;
#X connect 19 0 15 0;
#X connect 19 1 18 0;
#X connect 19 2 17 1;
#X connect 20 0 29 0;
#X connect 21 0 20 0;
#X connect 21 1 20 1;
#X connect 22 0 5 0;
#X connect 23 0 6 0;
#X connect 24 0 22 0;
#X connect 25 0 24 0;
#X connect 26 0 25 0;
#X connect 26 1 24 1;
#X connect 27 0 23 0;
#X connect 28 0 27 0;
#X connect 29 0 28 0;
#X connect 29 1 27 1;
#X connect 30 0 16 0;
#X restore 528 1474 pd pan;
#N canvas 0 23 450 300 pan 0;
#X obj 288 282 line;
#X obj 337 234 + 1000;
#X obj 300 257 pack;
#X obj 337 213 random 20000;
#X obj 234 567 *~;
#X obj 261 534 sig~;
#X obj 413 537 sig~;
#X obj 394 558 *~;
#X obj 390 163 del;
#X obj 314 158 t b b b;
#X obj 316 118 loadbang;
#X obj 327 490 inlet~;
#X obj 397 587 outlet~;
#X obj 234 588 outlet~;
#X obj 260 395 *;
#X obj 261 371 t f f;
#X obj 229 220 / 10;
#X obj 358 364 -;
#X msg 311 345 10;
#X obj 271 311 t f b f;
#X obj 388 409 *;
#X obj 389 385 t f f;
#X obj 260 506 / 100;
#X obj 409 507 / 100;
#X obj 266 475 -;
#X msg 266 448 100;
#X obj 265 421 t b f;
#X obj 421 489 -;
#X msg 400 460 100;
#X obj 404 433 t b f;
#X obj 229 199 random 101;
#X connect 0 0 19 0;
#X connect 1 0 2 1;
#X connect 1 0 8 1;
#X connect 2 0 0 0;
#X connect 3 0 1 0;
#X connect 4 0 13 0;
#X connect 5 0 4 1;
#X connect 6 0 7 1;
#X connect 7 0 12 0;
#X connect 8 0 9 0;
#X connect 9 0 8 0;
#X connect 9 1 30 0;
#X connect 9 2 3 0;
#X connect 10 0 9 0;
#X connect 11 0 4 0;
#X connect 11 0 7 0;
#X connect 14 0 26 0;
#X connect 15 0 14 0;
#X connect 15 1 14 1;
#X connect 16 0 2 0;
#X connect 17 0 21 0;
#X connect 18 0 17 0;
#X connect 19 0 15 0;
#X connect 19 1 18 0;
#X connect 19 2 17 1;
#X connect 20 0 29 0;
#X connect 21 0 20 0;
#X connect 21 1 20 1;
#X connect 22 0 5 0;
#X connect 23 0 6 0;
#X connect 24 0 22 0;
#X connect 25 0 24 0;
#X connect 26 0 25 0;
#X connect 26 1 24 1;
#X connect 27 0 23 0;
#X connect 28 0 27 0;
#X connect 29 0 28 0;
#X connect 29 1 27 1;
#X connect 30 0 16 0;
#X restore 581 1477 pd pan;
#N canvas 0 23 450 300 pan 0;
#X obj 288 282 line;
#X obj 337 234 + 1000;
#X obj 300 257 pack;
#X obj 337 213 random 20000;
#X obj 234 567 *~;
#X obj 261 534 sig~;
#X obj 413 537 sig~;
#X obj 394 558 *~;
#X obj 390 163 del;
#X obj 314 158 t b b b;
#X obj 316 118 loadbang;
#X obj 327 490 inlet~;
#X obj 397 587 outlet~;
#X obj 234 588 outlet~;
#X obj 260 395 *;
#X obj 261 371 t f f;
#X obj 229 220 / 10;
#X obj 358 364 -;
#X msg 311 345 10;
#X obj 271 311 t f b f;
#X obj 388 409 *;
#X obj 389 385 t f f;
#X obj 260 506 / 100;
#X obj 409 507 / 100;
#X obj 266 475 -;
#X msg 266 448 100;
#X obj 265 421 t b f;
#X obj 421 489 -;
#X msg 400 460 100;
#X obj 404 433 t b f;
#X obj 229 199 random 101;
#X connect 0 0 19 0;
#X connect 1 0 2 1;
#X connect 1 0 8 1;
#X connect 2 0 0 0;
#X connect 3 0 1 0;
#X connect 4 0 13 0;
#X connect 5 0 4 1;
#X connect 6 0 7 1;
#X connect 7 0 12 0;
#X connect 8 0 9 0;
#X connect 9 0 8 0;
#X connect 9 1 30 0;
#X connect 9 2 3 0;
#X connect 10 0 9 0;
#X connect 11 0 4 0;
#X connect 11 0 7 0;
#X connect 14 0 26 0;
#X connect 15 0 14 0;
#X connect 15 1 14 1;
#X connect 16 0 2 0;
#X connect 17 0 21 0;
#X connect 18 0 17 0;
#X connect 19 0 15 0;
#X connect 19 1 18 0;
#X connect 19 2 17 1;
#X connect 20 0 29 0;
#X connect 21 0 20 0;
#X connect 21 1 20 1;
#X connect 22 0 5 0;
#X connect 23 0 6 0;
#X connect 24 0 22 0;
#X connect 25 0 24 0;
#X connect 26 0 25 0;
#X connect 26 1 24 1;
#X connect 27 0 23 0;
#X connect 28 0 27 0;
#X connect 29 0 28 0;
#X connect 29 1 27 1;
#X connect 30 0 16 0;
#X restore 634 1479 pd pan;
#N canvas 0 23 450 300 pan 0;
#X obj 288 282 line;
#X obj 337 234 + 1000;
#X obj 300 257 pack;
#X obj 337 213 random 20000;
#X obj 234 567 *~;
#X obj 261 534 sig~;
#X obj 413 537 sig~;
#X obj 394 558 *~;
#X obj 390 163 del;
#X obj 314 158 t b b b;
#X obj 316 118 loadbang;
#X obj 327 490 inlet~;
#X obj 397 587 outlet~;
#X obj 234 588 outlet~;
#X obj 260 395 *;
#X obj 261 371 t f f;
#X obj 229 220 / 10;
#X obj 358 364 -;
#X msg 311 345 10;
#X obj 271 311 t f b f;
#X obj 388 409 *;
#X obj 389 385 t f f;
#X obj 260 506 / 100;
#X obj 409 507 / 100;
#X obj 266 475 -;
#X msg 266 448 100;
#X obj 265 421 t b f;
#X obj 421 489 -;
#X msg 400 460 100;
#X obj 404 433 t b f;
#X obj 229 199 random 101;
#X connect 0 0 19 0;
#X connect 1 0 2 1;
#X connect 1 0 8 1;
#X connect 2 0 0 0;
#X connect 3 0 1 0;
#X connect 4 0 13 0;
#X connect 5 0 4 1;
#X connect 6 0 7 1;
#X connect 7 0 12 0;
#X connect 8 0 9 0;
#X connect 9 0 8 0;
#X connect 9 1 30 0;
#X connect 9 2 3 0;
#X connect 10 0 9 0;
#X connect 11 0 4 0;
#X connect 11 0 7 0;
#X connect 14 0 26 0;
#X connect 15 0 14 0;
#X connect 15 1 14 1;
#X connect 16 0 2 0;
#X connect 17 0 21 0;
#X connect 18 0 17 0;
#X connect 19 0 15 0;
#X connect 19 1 18 0;
#X connect 19 2 17 1;
#X connect 20 0 29 0;
#X connect 21 0 20 0;
#X connect 21 1 20 1;
#X connect 22 0 5 0;
#X connect 23 0 6 0;
#X connect 24 0 22 0;
#X connect 25 0 24 0;
#X connect 26 0 25 0;
#X connect 26 1 24 1;
#X connect 27 0 23 0;
#X connect 28 0 27 0;
#X connect 29 0 28 0;
#X connect 29 1 27 1;
#X connect 30 0 16 0;
#X restore 695 1481 pd pan;
#N canvas 0 23 450 300 reverb 0;
#X obj 139 46 inlet~;
#X obj 170 137 *~;
#X obj 334 91 loadbang;
#X obj 361 134 metro 100;
#X obj 334 112 t b b;
#X obj 334 216 metro;
#X obj 361 155 random 1000;
#X obj 361 176 + 200;
#X obj 334 289 sig~;
#X obj 334 310 lop~ 5;
#X obj 334 259 / 100;
#X obj 334 238 random 80;
#X obj 103 348 *~ 0.15;
#X obj 103 369 outlet~;
#X obj 298 61 inlet;
#X obj 254 126 t b f;
#X msg 249 167 60000;
#X obj 249 188 /;
#X obj 139 67 delwrite~ 1-del 1000;
#X obj 103 328 delread~ 1-del;
#X connect 0 0 18 0;
#X connect 1 0 18 0;
#X connect 2 0 4 0;
#X connect 3 0 6 0;
#X connect 4 0 5 0;
#X connect 4 1 3 0;
#X connect 5 0 11 0;
#X connect 6 0 7 0;
#X connect 7 0 5 1;
#X connect 8 0 9 0;
#X connect 9 0 1 1;
#X connect 10 0 8 0;
#X connect 11 0 10 0;
#X connect 12 0 13 0;
#X connect 14 0 15 0;
#X connect 15 0 16 0;
#X connect 15 1 17 1;
#X connect 16 0 17 0;
#X connect 17 0 19 0;
#X connect 19 0 1 0;
#X connect 19 0 12 0;
#X restore 437 1423 pd reverb;
#N canvas 0 23 450 300 reverb 0;
#X obj 139 46 inlet~;
#X obj 170 137 *~;
#X obj 334 91 loadbang;
#X obj 361 134 metro 100;
#X obj 334 112 t b b;
#X obj 334 216 metro;
#X obj 361 155 random 1000;
#X obj 361 176 + 200;
#X obj 334 289 sig~;
#X obj 334 310 lop~ 5;
#X obj 334 259 / 100;
#X obj 334 238 random 80;
#X obj 103 348 *~ 0.15;
#X obj 103 369 outlet~;
#X obj 298 61 inlet;
#X obj 254 126 t b f;
#X msg 249 167 60000;
#X obj 249 188 /;
#X obj 139 68 delwrite~ 2-del 1000;
#X obj 103 329 delread~ 2-del;
#X connect 0 0 18 0;
#X connect 1 0 18 0;
#X connect 2 0 4 0;
#X connect 3 0 6 0;
#X connect 4 0 5 0;
#X connect 4 1 3 0;
#X connect 5 0 11 0;
#X connect 6 0 7 0;
#X connect 7 0 5 1;
#X connect 8 0 9 0;
#X connect 9 0 1 1;
#X connect 10 0 8 0;
#X connect 11 0 10 0;
#X connect 12 0 13 0;
#X connect 14 0 15 0;
#X connect 15 0 16 0;
#X connect 15 1 17 1;
#X connect 16 0 17 0;
#X connect 17 0 19 0;
#X connect 19 0 1 0;
#X connect 19 0 12 0;
#X restore 519 1420 pd reverb;
#N canvas 0 23 450 300 reverb 0;
#X obj 139 46 inlet~;
#X obj 170 137 *~;
#X obj 334 91 loadbang;
#X obj 361 134 metro 100;
#X obj 334 112 t b b;
#X obj 334 216 metro;
#X obj 361 155 random 1000;
#X obj 361 176 + 200;
#X obj 334 289 sig~;
#X obj 334 310 lop~ 5;
#X obj 334 259 / 100;
#X obj 334 238 random 80;
#X obj 103 348 *~ 0.15;
#X obj 103 369 outlet~;
#X obj 298 61 inlet;
#X obj 254 126 t b f;
#X msg 249 167 60000;
#X obj 249 188 /;
#X obj 139 68 delwrite~ 3-del 1000;
#X obj 103 329 delread~ 3-del;
#X connect 0 0 18 0;
#X connect 1 0 18 0;
#X connect 2 0 4 0;
#X connect 3 0 6 0;
#X connect 4 0 5 0;
#X connect 4 1 3 0;
#X connect 5 0 11 0;
#X connect 6 0 7 0;
#X connect 7 0 5 1;
#X connect 8 0 9 0;
#X connect 9 0 1 1;
#X connect 10 0 8 0;
#X connect 11 0 10 0;
#X connect 12 0 13 0;
#X connect 14 0 15 0;
#X connect 15 0 16 0;
#X connect 15 1 17 1;
#X connect 16 0 17 0;
#X connect 17 0 19 0;
#X connect 19 0 1 0;
#X connect 19 0 12 0;
#X restore 622 1422 pd reverb;
#N canvas 0 23 450 300 reverb 0;
#X obj 139 46 inlet~;
#X obj 170 137 *~;
#X obj 334 91 loadbang;
#X obj 361 134 metro 100;
#X obj 334 112 t b b;
#X obj 334 216 metro;
#X obj 361 155 random 1000;
#X obj 361 176 + 200;
#X obj 334 289 sig~;
#X obj 334 310 lop~ 5;
#X obj 334 259 / 100;
#X obj 334 238 random 80;
#X obj 103 348 *~ 0.15;
#X obj 103 369 outlet~;
#X obj 298 61 inlet;
#X obj 254 126 t b f;
#X msg 249 167 60000;
#X obj 249 188 /;
#X obj 139 68 delwrite~ 4-del 1000;
#X obj 102 329 delread~ 4-del;
#X connect 0 0 18 0;
#X connect 1 0 18 0;
#X connect 2 0 4 0;
#X connect 3 0 6 0;
#X connect 4 0 5 0;
#X connect 4 1 3 0;
#X connect 5 0 11 0;
#X connect 6 0 7 0;
#X connect 7 0 5 1;
#X connect 8 0 9 0;
#X connect 9 0 1 1;
#X connect 10 0 8 0;
#X connect 11 0 10 0;
#X connect 12 0 13 0;
#X connect 14 0 15 0;
#X connect 15 0 16 0;
#X connect 15 1 17 1;
#X connect 16 0 17 0;
#X connect 17 0 19 0;
#X connect 19 0 1 0;
#X connect 19 0 12 0;
#X restore 728 1422 pd reverb;
#N canvas 0 23 450 300 antiover 0;
#X obj 70 291 *~ -1;
#X obj 69 266 min~ -1;
#X obj 70 311 -~ 2;
#X obj 33 447 max~;
#X obj 180 271 max~ 1;
#X obj 180 292 *~ -1;
#X obj 180 313 +~ 2;
#X obj 219 459 min~;
#X obj 33 468 clip~ -1 0;
#X obj 219 480 clip~ 0 1;
#X obj 54 106 inlet~;
#X obj 119 522 outlet~;
#X connect 0 0 2 0;
#X connect 1 0 0 0;
#X connect 2 0 3 1;
#X connect 3 0 8 0;
#X connect 4 0 5 0;
#X connect 5 0 6 0;
#X connect 6 0 7 1;
#X connect 7 0 9 0;
#X connect 8 0 11 0;
#X connect 9 0 11 0;
#X connect 10 0 1 0;
#X connect 10 0 3 0;
#X connect 10 0 4 0;
#X connect 10 0 7 0;
#X restore 155 1593 pd antiover;
#N canvas 0 23 450 300 antiover 0;
#X obj 70 291 *~ -1;
#X obj 69 266 min~ -1;
#X obj 70 311 -~ 2;
#X obj 33 447 max~;
#X obj 180 271 max~ 1;
#X obj 180 292 *~ -1;
#X obj 180 313 +~ 2;
#X obj 219 459 min~;
#X obj 33 468 clip~ -1 0;
#X obj 219 480 clip~ 0 1;
#X obj 54 106 inlet~;
#X obj 119 522 outlet~;
#X connect 0 0 2 0;
#X connect 1 0 0 0;
#X connect 2 0 3 1;
#X connect 3 0 8 0;
#X connect 4 0 5 0;
#X connect 5 0 6 0;
#X connect 6 0 7 1;
#X connect 7 0 9 0;
#X connect 8 0 11 0;
#X connect 9 0 11 0;
#X connect 10 0 1 0;
#X connect 10 0 3 0;
#X connect 10 0 4 0;
#X connect 10 0 7 0;
#X restore 505 1681 pd antiover;
#X obj 980 788 t b b;
#X obj 988 1136 t b b b b;
#X obj 1204 846 t b b;
#X obj 904 561 metro 10;
#X obj 286 248 r play-s;
#X obj 335 218 r stop-s;
#X obj 901 1101 r stop;
#X msg 901 1122 0;
#X obj 922 1217 r play;
#X obj 877 1156 spigot;
#X obj 391 299 hsl 128 15 30 500 0 0 s-tempo r-tempo tempo_bpm -2 -8
0 10 -262144 -1 -1 0 1;
#X obj 615 237 r s-tempo;
#X floatatom 576 311 5 0 0 0 tempo numr num;
#X obj 998 1083 del 0;
#X msg 929 1246 0;
#X obj 624 273 s numr;
#X obj 472 139 r s-cycle;
#X obj 537 927 bng 15 250 50 0 empty empty empty 17 7 0 10 -262144
-1 -1;
#X obj 524 189 + 1;
#X obj 409 106 s r-cycle;
#X msg 473 205 0;
#X connect 1 0 2 0;
#X connect 2 0 3 0;
#X connect 2 0 57 0;
#X connect 2 0 169 0;
#X connect 2 0 170 0;
#X connect 2 0 171 0;
#X connect 2 0 172 0;
#X connect 3 0 1 1;
#X connect 4 0 5 0;
#X connect 5 0 96 0;
#X connect 6 0 5 1;
#X connect 7 0 4 1;
#X connect 8 0 10 0;
#X connect 8 1 11 1;
#X connect 8 2 7 0;
#X connect 10 0 11 0;
#X connect 12 0 13 1;
#X connect 13 0 120 0;
#X connect 14 0 22 1;
#X connect 14 0 25 0;
#X connect 17 0 18 0;
#X connect 18 0 19 0;
#X connect 19 0 20 0;
#X connect 19 0 23 0;
#X connect 20 0 18 1;
#X connect 21 0 17 1;
#X connect 22 0 24 0;
#X connect 22 0 16 0;
#X connect 23 0 22 0;
#X connect 23 1 16 1;
#X connect 23 2 21 0;
#X connect 24 0 22 1;
#X connect 25 0 17 0;
#X connect 26 0 27 0;
#X connect 27 0 28 0;
#X connect 27 0 35 0;
#X connect 28 0 26 1;
#X connect 29 0 30 1;
#X connect 30 0 43 0;
#X connect 30 0 45 0;
#X connect 30 0 53 0;
#X connect 30 0 54 0;
#X connect 31 0 39 1;
#X connect 31 1 47 1;
#X connect 31 2 49 1;
#X connect 31 3 51 1;
#X connect 33 0 26 0;
#X connect 34 0 33 1;
#X connect 35 0 30 0;
#X connect 35 1 29 0;
#X connect 35 2 34 0;
#X connect 36 0 39 1;
#X connect 36 1 47 1;
#X connect 36 2 49 1;
#X connect 36 3 51 1;
#X connect 37 0 39 1;
#X connect 37 1 47 1;
#X connect 37 2 49 1;
#X connect 37 3 51 1;
#X connect 38 0 39 1;
#X connect 38 1 47 1;
#X connect 38 2 49 1;
#X connect 38 3 51 1;
#X connect 39 0 32 0;
#X connect 40 0 41 0;
#X connect 41 0 42 0;
#X connect 41 0 44 0;
#X connect 41 0 46 0;
#X connect 41 0 55 0;
#X connect 41 0 56 0;
#X connect 42 0 40 1;
#X connect 43 0 31 0;
#X connect 44 0 43 1;
#X connect 45 0 36 0;
#X connect 46 0 45 1;
#X connect 47 0 48 0;
#X connect 49 0 50 0;
#X connect 51 0 52 0;
#X connect 53 0 37 0;
#X connect 54 0 38 0;
#X connect 55 0 53 1;
#X connect 56 0 54 1;
#X connect 57 0 58 0;
#X connect 58 0 59 0;
#X connect 59 0 60 0;
#X connect 59 0 61 0;
#X connect 59 0 190 0;
#X connect 60 0 58 1;
#X connect 61 0 13 0;
#X connect 61 0 64 0;
#X connect 62 0 149 0;
#X connect 63 0 75 0;
#X connect 64 0 65 0;
#X connect 65 0 83 0;
#X connect 65 0 81 0;
#X connect 65 0 82 0;
#X connect 65 0 144 0;
#X connect 65 1 80 0;
#X connect 65 1 142 0;
#X connect 65 1 82 0;
#X connect 65 1 144 0;
#X connect 65 2 80 0;
#X connect 65 2 81 0;
#X connect 65 2 143 0;
#X connect 65 2 144 0;
#X connect 65 3 145 0;
#X connect 65 3 82 0;
#X connect 65 3 81 0;
#X connect 65 3 80 0;
#X connect 66 0 156 0;
#X connect 67 0 74 0;
#X connect 68 0 157 0;
#X connect 69 0 73 0;
#X connect 70 0 158 0;
#X connect 71 0 72 0;
#X connect 72 0 70 1;
#X connect 73 0 68 1;
#X connect 74 0 66 1;
#X connect 75 0 62 1;
#X connect 76 0 170 1;
#X connect 77 0 171 1;
#X connect 78 0 172 1;
#X connect 79 0 169 1;
#X connect 80 0 63 0;
#X connect 81 0 67 0;
#X connect 82 0 69 0;
#X connect 83 0 63 0;
#X connect 85 0 88 0;
#X connect 86 0 87 0;
#X connect 87 0 169 2;
#X connect 87 0 170 2;
#X connect 87 0 171 2;
#X connect 87 0 172 2;
#X connect 88 0 70 0;
#X connect 89 0 12 1;
#X connect 90 0 13 0;
#X connect 91 0 12 1;
#X connect 92 0 93 0;
#X connect 93 0 94 0;
#X connect 94 0 92 1;
#X connect 94 0 95 0;
#X connect 95 0 99 0;
#X connect 95 0 123 0;
#X connect 95 1 98 0;
#X connect 96 0 6 0;
#X connect 96 0 8 0;
#X connect 97 0 102 0;
#X connect 98 0 101 0;
#X connect 99 0 100 0;
#X connect 102 0 1 0;
#X connect 103 0 106 0;
#X connect 104 0 105 0;
#X connect 105 0 107 0;
#X connect 106 0 114 0;
#X connect 107 0 102 0;
#X connect 110 0 90 0;
#X connect 111 0 116 0;
#X connect 111 0 163 0;
#X connect 112 0 113 0;
#X connect 113 0 58 0;
#X connect 114 0 115 0;
#X connect 114 1 107 0;
#X connect 115 0 1 0;
#X connect 117 0 118 0;
#X connect 118 0 40 0;
#X connect 119 0 109 0;
#X connect 119 0 210 0;
#X connect 120 0 12 0;
#X connect 120 0 14 0;
#X connect 120 0 121 0;
#X connect 121 0 89 0;
#X connect 121 1 91 0;
#X connect 121 2 4 0;
#X connect 121 2 86 0;
#X connect 121 2 92 0;
#X connect 121 2 207 0;
#X connect 122 0 131 0;
#X connect 123 0 124 0;
#X connect 123 0 125 0;
#X connect 124 0 123 1;
#X connect 125 0 126 0;
#X connect 126 0 127 0;
#X connect 128 0 92 0;
#X connect 129 0 146 0;
#X connect 130 0 135 0;
#X connect 130 0 128 0;
#X connect 131 0 132 0;
#X connect 131 1 130 0;
#X connect 132 0 130 1;
#X connect 133 0 130 1;
#X connect 134 0 133 0;
#X connect 135 0 123 0;
#X connect 136 0 147 0;
#X connect 140 0 125 1;
#X connect 141 0 62 0;
#X connect 142 0 67 0;
#X connect 143 0 69 0;
#X connect 144 0 71 0;
#X connect 145 0 71 0;
#X connect 146 0 97 0;
#X connect 147 0 146 0;
#X connect 149 0 176 0;
#X connect 149 0 184 0;
#X connect 150 0 155 0;
#X connect 151 0 154 0;
#X connect 152 0 153 0;
#X connect 153 0 150 0;
#X connect 154 0 150 0;
#X connect 155 0 149 1;
#X connect 155 0 156 1;
#X connect 155 0 158 1;
#X connect 155 0 157 1;
#X connect 156 0 177 0;
#X connect 156 0 185 0;
#X connect 157 0 178 0;
#X connect 157 0 186 0;
#X connect 158 0 179 0;
#X connect 159 0 188 0;
#X connect 160 0 189 0;
#X connect 161 0 162 0;
#X connect 162 0 193 0;
#X connect 163 0 193 0;
#X connect 164 0 184 1;
#X connect 164 0 185 1;
#X connect 164 0 186 1;
#X connect 164 0 187 1;
#X connect 165 0 166 0;
#X connect 166 0 184 1;
#X connect 166 0 185 1;
#X connect 166 0 186 1;
#X connect 166 0 187 1;
#X connect 167 0 84 0;
#X connect 168 0 84 1;
#X connect 169 0 173 0;
#X connect 170 0 174 0;
#X connect 171 0 175 0;
#X connect 172 0 85 0;
#X connect 173 0 141 0;
#X connect 174 0 66 0;
#X connect 175 0 68 0;
#X connect 176 0 159 0;
#X connect 176 1 160 0;
#X connect 177 0 159 0;
#X connect 177 1 160 0;
#X connect 178 0 159 0;
#X connect 178 1 160 0;
#X connect 179 0 159 0;
#X connect 179 1 160 0;
#X connect 180 0 159 0;
#X connect 180 1 160 0;
#X connect 181 0 159 0;
#X connect 181 1 160 0;
#X connect 182 0 159 0;
#X connect 182 1 160 0;
#X connect 183 0 159 0;
#X connect 183 1 160 0;
#X connect 184 0 180 0;
#X connect 185 0 181 0;
#X connect 186 0 182 0;
#X connect 187 0 183 0;
#X connect 188 0 167 0;
#X connect 189 0 168 0;
#X connect 190 0 33 0;
#X connect 190 1 192 0;
#X connect 191 0 47 0;
#X connect 191 1 49 0;
#X connect 191 2 51 0;
#X connect 191 3 39 0;
#X connect 192 0 40 0;
#X connect 192 1 203 0;
#X connect 193 0 4 0;
#X connect 194 0 137 0;
#X connect 195 0 109 0;
#X connect 196 0 197 0;
#X connect 197 0 199 1;
#X connect 198 0 204 0;
#X connect 199 0 191 0;
#X connect 201 0 148 0;
#X connect 201 0 205 0;
#X connect 203 0 199 0;
#X connect 204 0 199 1;
#X connect 204 0 203 1;
#X connect 206 0 208 0;
#X connect 208 0 139 0;
#X connect 210 0 209 0;
#X restore 33 -29 pd cycles;
#X obj 19 -2 cnv 15 210 410 back-s back-r empty 20 12 0 14 -66577 -66577
0;
#X obj 24 3 cnv 15 200 400 cyclesCanvas-s cyclesCanvas-r cycles 60
25 0 20 -4038 -66577 0;
#X obj 92 51 bng 70 250 50 0 play-s play-r play 12 33 0 20 -260097
-257985 -33289;
#X obj 65 325 hsl 128 20 30 500 0 0 s-tempo r-tempo tempo_bpm -5 -10
0 15 -257985 -33289 -33289 700 1;
#X text 56 347 30;
#X text 178 346 500;
#X obj 92 142 bng 70 250 50 0 stop-s stop-r stop 12 33 0 20 -258113
-257985 -33289;
#X text 79 370 kretopi@gmail.com;
#X obj 50 258 hradio 15 1 0 10 s-cycle r-cycle number_of_cycles 1 -10
0 15 -257985 -33289 -1 1;
#X text 53 258 1;
#X text 186 258 10;
